<svg width="396" height="396" viewBox="0 0 396 396" fill="none" xmlns="http://www.w3.org/2000/svg">
<path d="M198 396C307.352 396 396 307.352 396 198C396 88.6476 307.352 0 198 0C88.6476 0 0 88.6476 0 198C0 307.352 88.6476 396 198 396Z" fill="black"/>
<path d="M197.5 375C294.978 375 374 295.754 374 198C374 100.246 294.978 21 197.5 21C100.022 21 21 100.246 21 198C21 295.754 100.022 375 197.5 375Z" fill="#FEF102"/>
<path d="M281.495 131.737C277.271 122.288 273.336 103.619 262.505 99.4675C248.561 94.1242 239.941 129.107 237.888 137.945H235.811C232.296 122.801 227.578 101.336 210.893 96.5558C203.168 128.889 218.962 163.77 233.735 191.752C249.508 184.239 257.193 160.714 258.653 144.154H260.73L277.342 193.821C290.706 189.993 295.356 176.812 300.182 164.848C310.541 139.17 319.234 107.59 312.643 80C292.698 85.629 286.63 114.053 281.495 131.737ZM82.148 197.96C99.9957 189.467 108.489 162.584 111.219 144.154H113.296C115.408 153.038 121.054 175.957 132.192 177.429C146.383 179.3 153.824 147.918 154.827 137.945H156.903C161.428 153.526 166.196 173.789 181.821 181.404C187.586 157.274 180.683 131.54 171.829 108.973C169.553 103.17 164.879 87.5246 156.851 87.5246C143.698 87.5246 136.304 122.077 134.061 131.737H131.985L115.372 82.0695C86.1515 95.9763 70.2785 169.925 82.148 197.96ZM51 222.794C72.6852 317.06 172.71 370.5 262.806 330.692C295.597 316.204 321.607 290.389 336.604 257.975C340.479 249.6 348.089 234.441 343.652 223.452C339.233 212.506 296.375 230.391 285.667 235.062C284.163 235.728 283.102 237.11 282.855 238.733C282.504 241.028 283.127 243.366 284.579 245.185C286.028 247.005 288.173 248.139 290.497 248.317C298.348 248.919 308.49 249.697 308.49 249.697C275.915 312.536 187.841 340.321 125.755 290.118C111.859 278.883 99.4621 265.533 91.1186 249.697C87.0839 242.04 83.342 232.247 76.4832 226.993C69.8943 221.943 59.8979 220.213 51 222.794Z" fill="black" fill-opacity="0.83"/>
<mask id="path-4-inside-1" fill="white">
<path fill-rule="evenodd" clip-rule="evenodd" d="M198 396C307.353 396 396 307.352 396 198C396 88.6477 307.353 0 198 0C88.6475 0 0 88.6477 0 198C0 307.352 88.6475 396 198 396ZM124.5 91C98.2666 91 77 112.266 77 138.5C77 164.734 98.2666 186 124.5 186H271.5C297.733 186 319 164.734 319 138.5C319 112.266 297.733 91 271.5 91H124.5Z"/>
</mask>
<path fill-rule="evenodd" clip-rule="evenodd" d="M198 396C307.353 396 396 307.352 396 198C396 88.6477 307.353 0 198 0C88.6475 0 0 88.6477 0 198C0 307.352 88.6475 396 198 396ZM124.5 91C98.2666 91 77 112.266 77 138.5C77 164.734 98.2666 186 124.5 186H271.5C297.733 186 319 164.734 319 138.5C319 112.266 297.733 91 271.5 91H124.5Z" fill="#8936DC"/>
<path d="M376 198C376 296.307 296.307 376 198 376V416C318.398 416 416 318.398 416 198H376ZM198 20C296.307 20 376 99.6934 376 198H416C416 77.602 318.398 -20 198 -20V20ZM20 198C20 99.6934 99.6932 20 198 20V-20C77.6017 -20 -20 77.602 -20 198H20ZM198 376C99.6932 376 20 296.307 20 198H-20C-20 318.398 77.6017 416 198 416V376ZM97 138.5C97 123.312 109.312 111 124.5 111V71C87.221 71 57 101.221 57 138.5H97ZM124.5 166C109.312 166 97 153.688 97 138.5H57C57 175.779 87.221 206 124.5 206V166ZM271.5 166H124.5V206H271.5V166ZM299 138.5C299 153.688 286.688 166 271.5 166V206C308.779 206 339 175.779 339 138.5H299ZM271.5 111C286.688 111 299 123.312 299 138.5H339C339 101.221 308.779 71 271.5 71V111ZM124.5 111H271.5V71H124.5V111Z" fill="#6821B0" mask="url(#path-4-inside-1)"/>
<g style="mix-blend-mode:multiply" opacity="0.1">
<path d="M51 222.831C72.6852 317.097 172.71 370.538 262.806 330.729C295.597 316.241 321.607 290.426 336.604 258.012C340.479 249.637 348.089 234.478 343.652 223.489C339.233 212.543 296.375 230.428 285.667 235.099C284.163 235.765 283.102 237.147 282.855 238.77C282.504 241.065 283.127 243.404 284.579 245.223C286.028 247.042 288.173 248.176 290.497 248.354C298.348 248.956 308.49 249.734 308.49 249.734C275.915 312.574 187.841 340.358 125.755 290.155C111.859 278.92 99.4621 265.57 91.1186 249.734C87.0839 242.077 83.342 232.284 76.4832 227.03C69.8943 221.98 59.8979 220.25 51 222.831Z" fill="black"/>
</g>
</svg>
